Coordinates
version=1
nRows=15
nColumns=46
inDegrees=yes

Units are S.I. units (second, meters, Newtons, ...)
Angles are in degrees.

endheader
time	pelvis_tilt	pelvis_list	pelvis_rotation	pelvis_tx	pelvis_ty	pelvis_tz	bb_angle	bb_tx	bb_ty	bb_tz	hip_flexion_r	hip_adduction_r	hip_rotation_r	knee_angle_r	knee_angle_r_beta	ankle_angle_r	subtalar_angle_r	mtp_angle_r	crank_angle_r	hip_flexion_l	hip_adduction_l	hip_rotation_l	knee_angle_l	knee_angle_l_beta	ankle_angle_l	subtalar_angle_l	mtp_angle_l	crank_angle_l	lumbar_extension	lumbar_bending	lumbar_rotation	arm_flex_r	arm_add_r	arm_rot_r	elbow_flex_r	pro_sup_r	wrist_flex_r	wrist_dev_r	arm_flex_l	arm_add_l	arm_rot_l	elbow_flex_l	pro_sup_l	wrist_flex_l	wrist_dev_l
      2.50000000	     -9.13278912	      3.93953383	      8.03019714	      0.05444035	      1.17052772	     -0.23218261	      0.00000000	      0.50000000	      0.00000000	      0.25000000	     57.99101730	     -8.36189709	      6.71007122	     87.21984785	      1.52227352	    -28.84976651	     -7.98090547	      0.00000000	      0.00000000	     56.81580135	      4.03918315	      1.85730091	     56.71532020	      0.98986907	     11.78940620	     -4.04892905	      0.00000000	      0.00000000	    -65.81423022	      1.66671100	     -5.97565639	     89.54029809	    -13.04356523	     32.75968053	     48.78793153	     30.51634009	      0.00000000	      0.00000000	     89.82098240	    -11.64101085	     36.94563568	     52.32888810	     26.75306973	      0.00000000	      0.00000000
      2.50500000	     -9.01862598	      3.46400893	      7.94889793	      0.05481512	      1.16970950	     -0.23326304	      0.00000000	      0.50000000	      0.00000000	      0.25000000	     59.24283366	     -7.88753505	      6.69465169	     89.03206324	      1.55390264	    -29.65063274	     -7.85280254	      0.00000000	      0.00000000	     55.30677699	      3.47356616	      1.83005289	     54.56583809	      0.95235353	     11.29390880	     -3.35462626	      0.00000000	      0.00000000	    -65.69310841	      2.16897987	     -5.43412920	     89.55877690	    -12.82066524	     32.85076389	     48.71760030	     30.51622681	      0.00000000	      0.00000000	     89.81414171	    -11.85418782	     36.98784241	     52.18644698	     26.70084753	      0.00000000	      0.00000000
      2.51000000	     -8.78262120	      3.45961315	      7.60089771	      0.05546450	      1.16958825	     -0.23430122	      0.00000000	      0.50000000	      0.00000000	      0.25000000	     60.43789847	     -7.58374269	      7.14094749	     90.75572258	      1.58398617	    -30.83274242	     -7.95581330	      0.00000000	      0.00000000	     53.45863440	      2.95486355	      1.13467058	     52.20514351	      0.91115164	     10.53620833	     -2.06597354	      0.00000000	      0.00000000	    -65.72785732	      2.09231455	     -5.40874496	     89.54895659	    -12.56813315	     33.02047417	     48.44349429	     30.48493535	      0.00000000	      0.00000000	     89.81149947	    -12.00005095	     37.40165196	     51.66244888	     26.54721699	      0.00000000	      0.00000000
      2.51500000	     -8.46844700	      3.34626737	      7.26592982	      0.05614839	      1.16972016	     -0.23541733	      0.00000000	      0.50000000	      0.00000000	      0.25000000	     61.45196585	     -7.17288169	      7.50156511	     92.45569391	      1.61365627	    -31.22183882	     -8.09580880	      0.00000000	      0.00000000	     51.54407907	      2.45449417	      0.61454043	     49.89601413	      0.87084973	      9.84812959	     -1.16837990	      0.00000000	      0.00000000	    -65.77819494	      2.20871319	     -5.25574065	     89.56685374	    -12.13332125	     33.30899381	     47.86674590	     30.40746195	      0.00000000	      0.00000000	     89.80929861	    -12.31356613	     38.06293750	     50.98052414	     26.31203690	      0.00000000	      0.00000000
      2.52000000	     -8.24817630	      3.05940057	      6.97307280	      0.05685444	      1.16977670	     -0.23687476	      0.00000000	      0.50000000	      0.00000000	      0.25000000	     62.55220909	     -6.71943547	      7.67278558	     94.06862623	      1.64180725	    -31.55787949	     -8.15205582	      0.00000000	      0.00000000	     49.81587033	      1.94090553	      0.31487698	     47.67304630	      0.83205162	      8.74219852	     -0.41357169	      0.00000000	      0.00000000	    -65.75160619	      2.49742729	     -4.90613825	     89.58225891	    -11.79230522	     33.51595434	     47.54336642	     30.36238515	      0.00000000	      0.00000000	     89.80375426	    -12.62129067	     38.55992541	     50.49003766	     26.14036120	      0.00000000	      0.00000000
      2.52500000	     -7.96442578	      2.69552960	      6.50109622	      0.05771438	      1.17008759	     -0.23789993	      0.00000000	      0.50000000	      0.00000000	      0.25000000	     63.54660771	     -5.98883249	      7.87727787	     95.61618838	      1.66881731	    -31.53835159	     -8.15711049	      0.00000000	      0.00000000	     47.98773319	      1.17951725	     -0.12178623	     45.44777340	      0.79321328	      7.76240885	      0.50538460	      0.00000000	      0.00000000	    -65.78217088	      2.70244607	     -4.41223964	     89.59349977	    -11.41015888	     33.73309316	     47.26372004	     30.31839662	      0.00000000	      0.00000000	     89.79703360	    -12.97502065	     39.05735329	     49.98206468	     25.98867960	      0.00000000	      0.00000000
      2.53000000	     -7.89739668	      1.96172388	      6.20659098	      0.05836772	      1.16962126	     -0.23969555	      0.00000000	      0.50000000	      0.00000000	      0.25000000	     64.79280136	     -5.30562895	      7.65272800	     97.17155066	      1.69596350	    -31.31841926	     -8.17984489	      0.00000000	      0.00000000	     46.70782973	      0.44824661	      0.10954434	     43.74570703	      0.76350662	      6.71281533	      1.12624804	      0.00000000	      0.00000000	    -65.60272009	      3.28939491	     -3.69123727	     89.59983250	    -11.10502729	     33.87178548	     47.20263450	     30.31518369	      0.00000000	      0.00000000	     89.78293791	    -13.25896331	     39.21675242	     49.69123215	     25.92567283	      0.00000000	      0.00000000
      2.53500000	     -7.55771101	      1.69651578	      5.79719163	      0.05925118	      1.17058005	     -0.24118058	      0.00000000	      0.50000000	      0.00000000	      0.25000000	     65.67598040	     -4.76958302	      7.87335628	     98.63333920	      1.72147652	    -30.81201880	     -8.10142220	      0.00000000	      0.00000000	     44.72673370	     -0.31612617	     -0.82370844	     41.49214120	      0.72417448	      5.64938122	      2.83277718	      0.00000000	      0.00000000	    -65.67856134	      3.58084171	     -3.26291548	     89.61570794	    -10.66643776	     34.19250284	     46.75374374	     30.22084004	      0.00000000	      0.00000000	     89.78119493	    -13.56125130	     40.15981705	     48.72250725	     25.72932301	      0.00000000	      0.00000000
      2.54000000	     -7.34334004	      1.08429487	      5.36229144	      0.06004459	      1.17092000	     -0.24270813	      0.00000000	      0.50000000	      0.00000000	      0.25000000	     66.70803283	     -4.01717104	      7.75593389	    100.08738321	      1.74685438	    -30.05109069	     -8.22541618	      0.00000000	      0.00000000	     43.12539150	     -1.24707142	     -1.34488414	     39.63342893	      0.69173383	      4.54195520	      3.86818255	      0.00000000	      0.00000000	    -65.64138026	      4.06383090	     -2.55907857	     89.63001660	    -10.21303020	     34.42343243	     46.46439411	     30.15828054	      0.00000000	      0.00000000	     89.77026797	    -13.87850952	     40.73356605	     48.05695192	     25.61030240	      0.00000000	      0.00000000
      2.54500000	     -7.35554989	      0.36274171	      5.04581916	      0.06079842	      1.17093304	     -0.24469278	      0.00000000	      0.50000000	      0.00000000	      0.25000000	     67.96424714	     -3.34539008	      7.49357079	    101.46334636	      1.77086946	    -29.26086081	     -8.38839409	      0.00000000	      0.00000000	     41.81805648	     -2.06006069	     -1.54160125	     37.89541174	      0.66139971	      3.53113973	      4.57089925	      0.00000000	      0.00000000	    -65.42733925	      4.77039359	     -1.73713395	     89.63826629	     -9.83123394	     34.55468476	     46.42223525	     30.15190235	      0.00000000	      0.00000000	     89.74921181	    -14.13528612	     40.87022811	     47.74519174	     25.55698210	      0.00000000	      0.00000000
      2.55000000	     -6.76121969	     -0.31142429	      4.16451178	      0.06229640	      1.17200221	     -0.24522761	      0.00000000	      0.50000000	      0.00000000	      0.25000000	     68.50212250	     -2.08052534	      7.39203860	    102.78075509	      1.79386258	    -27.89716827	     -8.27278093	      0.00000000	      0.00000000	     39.83986627	     -3.73779173	     -3.59203700	     36.71394024	      0.64077914	      1.34166297	      9.80073030	      0.00000000	      0.00000000	    -65.69184853	      4.87134265	     -0.84433097	     89.64762649	     -9.18526399	     34.91000246	     45.56665275	     29.94230656	      0.00000000	      0.00000000	     89.75277870	    -14.33097185	     42.30760857	     46.18454994	     25.33740425	      0.00000000	      0.00000000
      2.55500000	     -6.49846612	     -0.97930744	      3.54620019	      0.06343735	      1.17266930	     -0.24655879	      0.00000000	      0.50000000	      0.00000000	      0.25000000	     69.40291299	     -1.17292388	      7.18433400	    104.03564160	      1.81576449	    -26.50539779	     -8.49472458	      0.00000000	      0.00000000	     38.24071481	     -4.91547183	     -4.80973383	     35.29674527	      0.61604442	     -0.23043088	     12.39245385	      0.00000000	      0.00000000	    -65.73684944	      5.26424613	     -0.01856163	     89.65729262	     -8.63793394	     35.14893710	     45.15333788	     29.80991713	      0.00000000	      0.00000000	     89.74419414	    -14.52316217	     43.09252813	     45.17980168	     25.20242267	      0.00000000	      0.00000000
      2.56000000	     -6.26996534	     -1.61486040	      2.98406714	      0.06435841	      1.17352865	     -0.24801379	      0.00000000	      0.50000000	      0.00000000	      0.25000000	     70.32848881	     -0.34526886	      6.97299774	    105.15880316	      1.83536735	    -25.27542167	     -8.53569139	      0.00000000	      0.00000000	     36.66487034	     -5.88278132	     -5.69348980	     33.71980196	      0.58852157	     -1.18945914	     13.34905270	      0.00000000	      0.00000000	    -65.78525260	      5.71214030	      0.78128581	     89.66822578	     -8.07946417	     35.37641856	     44.75707008	     29.66532696	      0.00000000	      0.00000000	     89.73691935	    -14.65121584	     43.80419820	     44.16521945	     25.06967689	      0.00000000	      0.00000000
      2.56500000	     -6.37423964	     -2.26622076	      2.61691298	      0.06496442	      1.17383534	     -0.24999306	      0.00000000	      0.50000000	      0.00000000	      0.25000000	     71.61052920	      0.21885707	      6.66192364	    106.16798817	      1.85298095	    -24.30604280	     -8.76668148	      0.00000000	      0.00000000	     35.55688310	     -6.53951983	     -5.92096141	     32.22927324	      0.56250693	     -1.39224484	     13.16186372	      0.00000000	      0.00000000	    -65.59221897	      6.36272585	      1.50437469	     89.67947315	     -7.64926312	     35.51053262	     44.77988343	     29.65903176	      0.00000000	      0.00000000	     89.71209794	    -14.81561542	     43.88704438	     43.86423822	     25.01886571	      0.00000000	      0.00000000
      2.57000000	     -6.04620586	     -2.65648333	      1.98819701	      0.06570841	      1.17515221	     -0.25146170	      0.00000000	      0.50000000	      0.00000000	      0.25000000	     72.35710149	      0.93392570	      6.69519605	    107.05661125	      1.86849035	    -22.85848616	     -8.08354715	      0.00000000	      0.00000000	     33.80249458	     -7.13876418	     -6.59163412	     30.54958424	      0.53319083	     -2.03537795	     12.59833443	      0.00000000	      0.00000000	    -65.70871974	      6.54785338	      2.01185417	     89.68751031	     -6.97628795	     35.65255576	     44.01295457	     29.39204002	      0.00000000	      0.00000000	     89.71970588	    -14.69099795	     45.30213412	     42.04632173	     24.79280200	      0.00000000	      0.00000000
